<?xml version="1.0" encoding="utf-8"?>
<!-- Generator: Adobe Illustrator 17.0.0, SVG Export Plug-In . SVG Version: 6.00 Build 0)  -->
<!DOCTYPE svg PUBLIC "-//W3C//DTD SVG 1.1//EN" "http://www.w3.org/Graphics/SVG/1.1/DTD/svg11.dtd">
<svg version="1.1" id="Layer_1" xmlns="http://www.w3.org/2000/svg" xmlns:xlink="http://www.w3.org/1999/xlink" x="0px" y="0px"
	 width="191px" height="194px" viewBox="0 0 191 194" enable-background="new 0 0 191 194" xml:space="preserve">
<g transform="translate(0.000000,194.000000) scale(0.100000,-0.100000)">
	<path fill="#FF5722" d="M981,1901c-14-27-34-45-66-61c-68-33-58-80,18-80c81,0,147,54,147,119c0,44-14,61-52,61
		C1006,1940,996,1932,981,1901z"/>
	<path fill="#FF5722" d="M249,1891c-21-22-29-39-29-65c0-35,3-37,79-75c53-27,89-53,111-81c29-36,37-41,69-38s36,6,39,34
		s-4,39-57,85c-33,28-71,74-86,101C334,1927,297,1939,249,1891z"/>
	<path fill="#FF5722" d="M1386,1849c-9-13-16-30-16-39c-1-41-40-99-84-125c-73-42-75-95-4-95c33,0,48,7,89,44c26,24,72,52,101,62
		c40,15,55,26,62,47c17,49-33,110-100,123C1408,1871,1399,1868,1386,1849z"/>
	<path fill="#FF5722" d="M669,1656c-90-19-153-68-197-151c-35-66-37-185-5-257c41-90,227-251,368-319c68-33,101-36,133-13
		c24,17,29,63,12,108c-9,24,0,20,78-32c121-82,181-112,222-112c43,0,60,15,60,52c0,22-8,33-31,46c-76,41-212,135-304,211
		c-114,93-160,113-200,87c-37-25-34-70,13-142c57-89,58-91,41-78c-231,171-299,249-299,344c0,39,48,108,94,135c78,46,192,28,382-60
		c143-66,276-173,359-290c100-140,103-232,10-313c-19-18-55-42-78-53c-133-68-245-169-310-278c-43-72-52-81-78-81c-16,0-46,7-66,15
		c-19,8-53,15-74,15c-45,0-63-24-53-67c13-52,21-56,111-49c80,7,83,6,83-14c0-14-11-25-34-35c-30-13-38-13-63,0c-33,17-67,19-94,5
		c-25-14-25-64,0-89c18-18,18-18,0-30c-52-32,4-120,66-105c16,4,48,8,70,8c36,1,39-1,46-32c13-63,63-95,104-68c19,12,25,25,25,51
		c0,28,4,35,19,35c26,0,51,26,51,54c0,27-26,52-60,59c-21,4-20,4,8,6c24,1,35,7,44,26c14,31-3,75-33,82c-33,9-15,28,29,31
		c31,2,46,9,58,27c23,36,15,69-18,73c-16,2-28,7-28,12c0,13,72,100,121,147c24,22,85,67,134,98c188,120,220,161,220,286
		c-1,68-5,85-37,150c-20,41-36,74-35,74c1,1,36,16,77,35c60,27,88,34,140,35c36,0,79-4,96-8c44-11,64,11,64,72c0,55-25,95-65,105
		c-42,11-227-98-309-180l-28-29l-86,87c-165,169-379,286-582,318C761,1672,741,1672,669,1656z"/>
	<path fill="#FF5722" d="M28,1469c-22-13-32-67-19-102c10-26,15-28,59-26c36,2,65-6,119-30c87-40,119-39,116,4
		c-3,41-104,139-158,154C96,1482,51,1483,28,1469z"/>
</g>
</svg>
